<svg width="24" height="21" viewBox="0 0 24 21" fill="none" xmlns="http://www.w3.org/2000/svg">
<g id="Group 1">
<path id="Vector" d="M5.95796 4.5533C2.7044 7.05891 0.0258203 9.13446 0.00244699 9.17186C-0.0256009 9.2186 0.184758 9.52713 0.773765 10.2938C1.22253 10.8734 1.60585 11.3502 1.62923 11.3549C1.64793 11.3549 3.98058 9.57388 6.80407 7.40016L11.9415 3.45008L17.079 7.40016C19.9025 9.57388 22.2351 11.3549 22.2538 11.3549C22.3052 11.3502 23.8806 9.3121 23.8993 9.22795C23.9086 9.19055 23.156 8.58285 22.2304 7.86763L20.5429 6.57275V4.40371V2.23934H18.7899H17.0369L17.0275 3.04806L17.0135 3.85677L14.5126 1.93081C13.1382 0.869668 11.9789 0.000183105 11.9415 0.000183105C11.9041 0.000183105 9.21152 2.04768 5.95796 4.5533Z" fill="#F3AE9F"/>
<path id="Vector_2" d="M7.76764 8.34902L3.66797 11.5138L3.67732 15.7677L3.69134 20.0263L7.02437 20.0403L10.3527 20.0497V16.9177V13.7856H12.0823H13.812V16.9177V20.0497L17.0048 20.0403L20.1929 20.0263L20.2069 15.7677L20.2162 11.5138L16.1072 8.34902C13.8447 6.61005 11.9655 5.18428 11.9328 5.18895C11.9 5.18895 10.0255 6.61005 7.76764 8.34902Z" fill="#F3AE9F"/>
</g>
</svg>
