<svg width="90" height="38" viewBox="0 0 90 38" fill="none" xmlns="http://www.w3.org/2000/svg">
<path d="M6.854 21.984H15.366V27H0.356V0.323999H6.854V21.984ZM28.1174 27.304C26.04 27.304 24.1654 26.8607 22.4934 25.974C20.8467 25.0873 19.542 23.8207 18.5794 22.174C17.642 20.5273 17.1734 18.602 17.1734 16.398C17.1734 14.2193 17.6547 12.3067 18.6174 10.66C19.58 8.988 20.8974 7.70867 22.5694 6.822C24.2414 5.93533 26.116 5.492 28.1934 5.492C30.2707 5.492 32.1454 5.93533 33.8174 6.822C35.4894 7.70867 36.8067 8.988 37.7694 10.66C38.732 12.3067 39.2134 14.2193 39.2134 16.398C39.2134 18.5767 38.7194 20.502 37.7314 22.174C36.7687 23.8207 35.4387 25.0873 33.7414 25.974C32.0694 26.8607 30.1947 27.304 28.1174 27.304ZM28.1174 21.68C29.3587 21.68 30.41 21.224 31.2714 20.312C32.158 19.4 32.6014 18.0953 32.6014 16.398C32.6014 14.7007 32.1707 13.396 31.3094 12.484C30.4734 11.572 29.4347 11.116 28.1934 11.116C26.9267 11.116 25.8754 11.572 25.0394 12.484C24.2034 13.3707 23.7854 14.6753 23.7854 16.398C23.7854 18.0953 24.1907 19.4 25.0014 20.312C25.8374 21.224 26.876 21.68 28.1174 21.68ZM50.7167 5.492C52.2114 5.492 53.516 5.796 54.6307 6.404C55.7707 7.012 56.6447 7.81 57.2527 8.798V5.796H63.7507V26.962C63.7507 28.9127 63.358 30.6733 62.5727 32.244C61.8127 33.84 60.6347 35.1067 59.0387 36.044C57.468 36.9813 55.5047 37.45 53.1487 37.45C50.0074 37.45 47.4614 36.7027 45.5107 35.208C43.56 33.7387 42.4454 31.7373 42.1667 29.204H48.5887C48.7914 30.0147 49.2727 30.648 50.0327 31.104C50.7927 31.5853 51.73 31.826 52.8447 31.826C54.1874 31.826 55.2514 31.4333 56.0367 30.648C56.8474 29.888 57.2527 28.6593 57.2527 26.962V23.96C56.6194 24.948 55.7454 25.7587 54.6307 26.392C53.516 27 52.2114 27.304 50.7167 27.304C48.9687 27.304 47.3854 26.8607 45.9667 25.974C44.548 25.062 43.4207 23.7827 42.5847 22.136C41.774 20.464 41.3687 18.5387 41.3687 16.36C41.3687 14.1813 41.774 12.2687 42.5847 10.622C43.4207 8.97533 44.548 7.70867 45.9667 6.822C47.3854 5.93533 48.9687 5.492 50.7167 5.492ZM57.2527 16.398C57.2527 14.7767 56.7967 13.4973 55.8847 12.56C54.998 11.6227 53.9087 11.154 52.6167 11.154C51.3247 11.154 50.2227 11.6227 49.3107 12.56C48.424 13.472 47.9807 14.7387 47.9807 16.36C47.9807 17.9813 48.424 19.2733 49.3107 20.236C50.2227 21.1733 51.3247 21.642 52.6167 21.642C53.9087 21.642 54.998 21.1733 55.8847 20.236C56.7967 19.2987 57.2527 18.0193 57.2527 16.398ZM78.1037 27.304C76.0264 27.304 74.1517 26.8607 72.4797 25.974C70.833 25.0873 69.5284 23.8207 68.5657 22.174C67.6284 20.5273 67.1597 18.602 67.1597 16.398C67.1597 14.2193 67.641 12.3067 68.6037 10.66C69.5664 8.988 70.8837 7.70867 72.5557 6.822C74.2277 5.93533 76.1024 5.492 78.1797 5.492C80.257 5.492 82.1317 5.93533 83.8037 6.822C85.4757 7.70867 86.793 8.988 87.7557 10.66C88.7184 12.3067 89.1997 14.2193 89.1997 16.398C89.1997 18.5767 88.7057 20.502 87.7177 22.174C86.755 23.8207 85.425 25.0873 83.7277 25.974C82.0557 26.8607 80.181 27.304 78.1037 27.304ZM78.1037 21.68C79.345 21.68 80.3964 21.224 81.2577 20.312C82.1444 19.4 82.5877 18.0953 82.5877 16.398C82.5877 14.7007 82.157 13.396 81.2957 12.484C80.4597 11.572 79.421 11.116 78.1797 11.116C76.913 11.116 75.8617 11.572 75.0257 12.484C74.1897 13.3707 73.7717 14.6753 73.7717 16.398C73.7717 18.0953 74.177 19.4 74.9877 20.312C75.8237 21.224 76.8624 21.68 78.1037 21.68Z" fill="#F3AE9F"/>
</svg>
