<svg xmlns="http://www.w3.org/2000/svg" width="26" height="26" viewBox="0 0 26 26" fill="none">
<path d="M17.4839 3.20696L7.70141 6.45696C1.12557 8.65613 1.12557 12.242 7.70141 14.4303L10.6047 15.3945L11.5689 18.2978C13.7572 24.8736 17.3539 24.8736 19.5422 18.2978L22.8031 8.52613C24.2547 4.13862 21.8714 1.74446 17.4839 3.20696ZM17.8306 9.03529L13.7139 13.1736C13.5514 13.3361 13.3456 13.412 13.1397 13.412C12.9339 13.412 12.7281 13.3361 12.5656 13.1736C12.2514 12.8595 12.2514 12.3395 12.5656 12.0253L16.6822 7.88696C16.9964 7.57279 17.5164 7.57279 17.8306 7.88696C18.1447 8.20113 18.1447 8.72113 17.8306 9.03529Z" fill="#050505"/>
</svg>