<svg width="132" height="32" viewBox="0 0 132 32" fill="none" xmlns="http://www.w3.org/2000/svg">
<g id="Group 143726566">
<g id="Group 143726563">
<g id="Black">
<path id="Vector" d="M100.485 0.0749989C100.51 0.112499 103.254 4.1125 106.585 8.95625C109.91 13.8 112.635 17.775 112.635 17.7875C112.635 17.8 101.391 30.8937 100.523 31.8875C100.435 31.9937 100.504 32 101.86 32H103.298L108.61 25.8187L113.929 19.6438L118.173 25.8187L122.416 32H127.123C130.873 32 131.823 31.9812 131.779 31.9187C131.754 31.8813 128.929 27.7562 125.498 22.7625C122.06 17.7688 119.241 13.65 119.223 13.6062C119.198 13.5312 120.716 11.75 128.741 2.41875L130.829 0H129.391H127.954L122.935 5.8375C120.173 9.04375 117.898 11.6625 117.879 11.65C117.86 11.6437 116.048 9.0125 113.848 5.81875L109.854 0H105.148C101.516 0 100.454 0.0187492 100.485 0.0749989ZM117.979 15.7312C123.204 23.2125 127.585 29.4813 127.716 29.6688L127.954 30H125.873L123.791 29.9937L114.291 16.4C109.066 8.91875 104.685 2.65 104.554 2.4625L104.31 2.125H106.398L108.479 2.13125L117.979 15.7312Z" fill="#F3AE9F"/>
</g>
</g>
<g id="Group 143726564">
<g id="Black_2">
<path id="Vector_2" d="M59.7792 0.0725861C56.2108 0.679834 53.3811 3.41558 52.6049 7.00899C52.4984 7.48477 52.4922 8.12958 52.4922 16.005C52.4922 23.8805 52.4984 24.5253 52.6049 25.0011C52.9742 26.7352 53.7818 28.2188 55.0276 29.4646C56.2734 30.7104 57.7571 31.518 59.4912 31.8874C59.967 31.9938 60.6118 32.0001 68.4872 32.0001C76.3627 32.0001 77.0075 31.9938 77.4833 31.8874C79.2174 31.518 80.701 30.7104 81.9468 29.4646C83.1926 28.2188 84.0002 26.7352 84.3696 25.0011C84.476 24.5253 84.4823 23.8805 84.4823 16.005C84.4823 8.12958 84.476 7.48477 84.3696 7.00899C84.0002 5.27489 83.1926 3.7912 81.9468 2.5454C80.7261 1.32464 79.33 0.560888 77.5333 0.122667C77.1327 0.0225029 76.3627 0.016243 68.675 0.00372314C62.0454 -0.00879669 60.1548 0.00998306 59.7792 0.0725861ZM76.8447 2.00702C78.3409 2.27621 79.449 2.85841 80.5445 3.9477C81.6338 5.04325 82.216 6.15133 82.4852 7.64754C82.6167 8.39251 82.6167 23.6175 82.4852 24.3625C82.216 25.8587 81.6338 26.9668 80.5445 28.0623C79.449 29.1516 78.3409 29.7338 76.8447 30.003C76.0997 30.1345 60.8747 30.1345 60.1297 30.003C58.6335 29.7338 57.5255 29.1516 56.4299 28.0623C55.3406 26.9668 54.7584 25.8587 54.4892 24.3625C54.3578 23.6175 54.3578 8.39251 54.4892 7.64754C54.7584 6.15133 55.3406 5.04325 56.4299 3.9477C57.5067 2.8772 58.6147 2.28873 60.0671 2.01328C60.7432 1.88807 76.1373 1.88181 76.8447 2.00702Z" fill="#F3AE9F"/>
<path id="Vector_3" d="M77.2585 4.05423C76.5573 4.19196 75.8186 4.72408 75.468 5.34385C74.9484 6.27663 75.0298 7.50991 75.6621 8.32375C76.1692 8.97482 76.8265 9.31287 77.6717 9.3567C79.0865 9.42556 80.2259 8.49904 80.4575 7.09047C80.7642 5.25621 79.1115 3.69113 77.2585 4.05423ZM78.2163 6.08256C78.2977 6.13891 78.4166 6.28915 78.4792 6.41436C78.5731 6.61469 78.5731 6.67103 78.498 6.89014C78.3979 7.17186 78.0786 7.42853 77.8344 7.42853C77.5715 7.42853 77.271 7.24072 77.1646 7.02161C77.0331 6.74616 77.0394 6.56461 77.1896 6.3142C77.415 5.94484 77.8595 5.85093 78.2163 6.08256Z" fill="#F3AE9F"/>
<path id="Vector_4" d="M67.4851 7.24065C66.377 7.37837 65.3753 7.68513 64.4238 8.18595C62.0136 9.44427 60.292 11.7731 59.81 14.44C59.6597 15.2413 59.6597 16.7688 59.81 17.5701C60.461 21.1635 63.3282 24.0307 66.9216 24.6818C67.723 24.8321 69.2505 24.8321 70.0518 24.6818C73.6452 24.0307 76.5124 21.1635 77.1635 17.5701C77.3137 16.7688 77.3137 15.2413 77.1635 14.44C76.6814 11.7731 74.9724 9.45679 72.5496 8.17969C71.8422 7.81033 70.8468 7.47228 70.0831 7.33455C69.3819 7.20934 68.1048 7.16552 67.4851 7.24065ZM69.6636 9.2502C70.1206 9.31906 71.0785 9.63208 71.523 9.85745C72.7813 10.4897 74.002 11.7105 74.6343 12.9688C74.8597 13.407 75.1727 14.3586 75.2541 14.8594C75.3417 15.4041 75.3417 16.606 75.2541 17.1507C75.1727 17.6515 74.8597 18.6031 74.6343 19.0413C74.002 20.2996 72.7813 21.5204 71.523 22.1527C71.0847 22.378 70.1332 22.691 69.6323 22.7724C69.0877 22.8601 67.8857 22.8601 67.3411 22.7724C66.8403 22.691 65.8887 22.378 65.4505 22.1527C64.1922 21.5204 62.9714 20.2996 62.3391 19.0413C62.1137 18.6031 61.8007 17.6515 61.7193 17.1507C61.6317 16.606 61.6317 15.4041 61.7193 14.8594C61.8007 14.3586 62.1137 13.407 62.3391 12.9688C63.0653 11.5227 64.4113 10.2644 65.8449 9.68216C67.1032 9.16881 68.2676 9.03735 69.6636 9.2502Z" fill="#F3AE9F"/>
</g>
</g>
<g id="Group 143726565">
<path id="Vector_5" d="M34.2119 0.0968494C33.8555 0.218042 1.66115 12.6295 1.01954 12.9004C0.370805 13.1713 -0.00702985 13.7559 9.9104e-05 14.5045C9.9104e-05 15.0605 0.192581 15.4954 0.570415 15.8019C0.74151 15.9374 2.08175 16.4721 4.80501 17.4915L8.79723 18.9814L10.1232 23.2446C10.8504 25.5971 11.549 27.8427 11.6773 28.2491C11.9268 29.0618 12.1977 29.4396 12.711 29.7034C13.0746 29.8887 13.7732 29.8959 14.1511 29.7176C14.3008 29.6464 15.4913 28.7125 16.8102 27.6431C18.6138 26.1746 19.2483 25.6969 19.3909 25.6969C19.5334 25.6969 20.7026 26.5096 23.6754 28.6697C25.921 30.3022 27.9028 31.7209 28.0739 31.8136C28.4589 32.0346 29.0363 32.0631 29.5211 31.8777C29.9203 31.7209 30.3694 31.2432 30.4906 30.8512C30.7259 30.0456 36.4932 2.01454 36.4932 1.67235C36.4861 0.488941 35.3668 -0.280987 34.2119 0.0968494ZM34.9676 1.62245C34.9961 1.69374 29.1718 29.9173 29.0363 30.345C29.0149 30.4163 28.9508 30.4733 28.8937 30.4733C28.8367 30.4733 26.9761 29.1473 24.7447 27.5291C22.5205 25.9179 20.5244 24.4993 20.3034 24.3923C20.0039 24.2426 19.8043 24.1927 19.4764 24.1927C18.571 24.1856 18.6637 24.1285 15.5412 26.6807C14.4291 27.5932 13.4809 28.3346 13.431 28.3346C13.3811 28.3346 13.3099 28.2491 13.2671 28.135C13.2243 28.0281 12.4972 25.7112 11.6488 22.9879C10.5082 19.3165 10.0662 17.9905 9.94499 17.8693C9.84518 17.7624 8.45504 17.2135 5.86723 16.2511C3.71428 15.4455 1.8465 14.7397 1.72531 14.6827C1.48292 14.5758 1.41876 14.4118 1.5756 14.3405C2.1673 14.0767 34.711 1.5369 34.8036 1.5369C34.8749 1.52977 34.9462 1.57254 34.9676 1.62245Z" fill="#F3AE9F"/>
<path id="Vector_6" d="M27.3335 6.47026C25.8222 7.35425 12.2344 15.7807 12.0562 15.9518C11.5714 16.4151 11.2577 17.2635 11.3647 17.8481C11.4431 18.2829 13.0471 23.9362 13.1541 24.1429C13.2111 24.2499 13.3679 24.421 13.5034 24.5279C13.8313 24.7703 14.3802 24.7988 14.7509 24.5849C15.1715 24.3497 15.2856 24.0075 15.5351 22.1397C15.6777 21.0347 15.806 20.3503 15.9058 20.1293C16.027 19.8299 16.9039 18.9958 22.4288 13.8559C26.7347 9.84938 28.8449 7.84614 28.909 7.68218C29.0374 7.38276 29.0374 7.22593 28.8948 6.87661C28.6667 6.32055 27.9324 6.12807 27.3335 6.47026ZM23.6978 10.5765C23.6194 10.6478 21.6945 12.4301 19.4204 14.5402C17.1463 16.6504 15.1502 18.5396 14.9862 18.7392C14.8151 18.9388 14.6012 19.2739 14.5014 19.4806C14.3375 19.8299 14.1093 20.8494 14.1093 21.27C14.1093 21.3698 14.0808 21.4981 14.0523 21.548C13.9881 21.6478 12.8974 17.8695 12.8974 17.5486C12.8974 17.4417 12.983 17.2635 13.097 17.1423C13.2396 16.9783 23.6265 10.491 23.8047 10.4482C23.819 10.4411 23.7762 10.4981 23.6978 10.5765Z" fill="#F3AE9F"/>
<path id="Vector_7" d="M29.7927 15.9159C29.5717 16.144 29.3935 16.7928 29.4719 17.135C29.5717 17.5912 30.1349 17.8336 30.5698 17.6055C30.8692 17.4558 31.0261 17.0922 31.0332 16.5147C31.0403 16.1013 31.0189 16.0442 30.8407 15.8874C30.5484 15.6308 30.0636 15.645 29.7927 15.9159Z" fill="#F3AE9F"/>
<path id="Vector_8" d="M29.0568 19.2811C28.957 19.3951 28.8572 19.552 28.8358 19.6161C28.8216 19.6874 28.4295 21.4697 27.9732 23.587C27.3887 26.296 27.1534 27.4936 27.189 27.6647C27.2318 27.9142 27.4885 28.1638 27.7665 28.235C28.0231 28.2992 28.3938 28.1424 28.5293 27.9142C28.6933 27.6291 30.3899 19.8229 30.3329 19.5948C30.2474 19.2526 29.9765 19.0672 29.5844 19.0672C29.285 19.0672 29.2065 19.0957 29.0568 19.2811Z" fill="#F3AE9F"/>
</g>
</g>
</svg>
